<svg xmlns="http://www.w3.org/2000/svg" xmlns:xlink="http://www.w3.org/1999/xlink" fill="none" viewBox="0 0 1440 725">
  <mask id="a" width="1999" height="1771" x="-151" y="-1138" maskUnits="userSpaceOnUse" style="mask-type:alpha">
    <path fill="#C4C4C4" fill-rule="evenodd" d="M814.571 585.345c229.479-.129 468.929 87.124 661.119-38.25 213.72-139.417 371.57-380.422 371.84-635.58.26-246.086-207.49-421.508-370.5-605.862-162.84-184.142-310.63-418.883-555.434-441.253-248.344-22.7-450.718 167.967-638.428 332.137C94.202-638.194-95.64-459.682-134.761-211.718c-42.483 269.282-4.054 584.301 204.734 759.6 197.848 166.114 486.252 37.608 744.598 37.463Z" clip-rule="evenodd"/>
  </mask>
  <g mask="url(#a)">
    <path fill="url(#b)" d="M311.986.404h1151.97v686.931H311.986z"/>
    <path fill="url(#c)" d="M-38.004-.596h1439.96v657.934H-38.004z"/>
  </g>
  <defs>
    <linearGradient id="c" x1="307.486" x2="1253.74" y1="284.68" y2="262.367" gradientUnits="userSpaceOnUse">
      <stop offset=".097" stop-color="#fff"/>
      <stop offset=".261" stop-color="#fff" stop-opacity=".851"/>
      <stop offset=".527" stop-color="#fff" stop-opacity=".193"/>
      <stop offset=".745" stop-color="#fff" stop-opacity="0"/>
    </linearGradient>
    <pattern id="b" width="1" height="1" patternContentUnits="objectBoundingBox">
      <use xlink:href="#d" transform="matrix(.00087 0 0 .00146 0 -.009)"/>
    </pattern>
  </defs>
</svg>
